<mxfile host="app.diagrams.net" modified="2023-09-29T16:40:10.090Z" agent="Mozilla/5.0 (Windows NT 10.0; Win64; x64) AppleWebKit/537.36 (KHTML, like Gecko) Chrome/117.0.0.0 Safari/537.36" etag="YBaOATDqYyhx8YYOnT76" version="21.8.2" type="github">
  <diagram name="Page-1" id="pk6mPZ26se8e6UtmQEcE">
    <mxGraphModel dx="1418" dy="748" grid="1" gridSize="10" guides="1" tooltips="1" connect="1" arrows="1" fold="1" page="1" pageScale="1" pageWidth="850" pageHeight="1100" math="0" shadow="0">
      <root>
        <mxCell id="0" />
        <mxCell id="1" parent="0" />
        <mxCell id="Kl7lDOIlUgvbYGV5eezf-9" style="edgeStyle=orthogonalEdgeStyle;rounded=0;orthogonalLoop=1;jettySize=auto;html=1;" edge="1" parent="1" source="Kl7lDOIlUgvbYGV5eezf-1">
          <mxGeometry relative="1" as="geometry">
            <mxPoint x="140" y="200" as="targetPoint" />
          </mxGeometry>
        </mxCell>
        <mxCell id="Kl7lDOIlUgvbYGV5eezf-1" value="Unlock phone" style="ellipse;whiteSpace=wrap;html=1;" vertex="1" parent="1">
          <mxGeometry x="80" y="80" width="120" height="80" as="geometry" />
        </mxCell>
        <mxCell id="Kl7lDOIlUgvbYGV5eezf-12" value="" style="edgeStyle=orthogonalEdgeStyle;rounded=0;orthogonalLoop=1;jettySize=auto;html=1;" edge="1" parent="1" source="Kl7lDOIlUgvbYGV5eezf-7" target="Kl7lDOIlUgvbYGV5eezf-11">
          <mxGeometry relative="1" as="geometry" />
        </mxCell>
        <mxCell id="Kl7lDOIlUgvbYGV5eezf-7" value="Open phone app" style="ellipse;whiteSpace=wrap;html=1;" vertex="1" parent="1">
          <mxGeometry x="80" y="200" width="120" height="80" as="geometry" />
        </mxCell>
        <mxCell id="Kl7lDOIlUgvbYGV5eezf-14" value="" style="edgeStyle=orthogonalEdgeStyle;rounded=0;orthogonalLoop=1;jettySize=auto;html=1;" edge="1" parent="1" source="Kl7lDOIlUgvbYGV5eezf-11" target="Kl7lDOIlUgvbYGV5eezf-13">
          <mxGeometry relative="1" as="geometry" />
        </mxCell>
        <mxCell id="Kl7lDOIlUgvbYGV5eezf-11" value="Go to keypad" style="ellipse;whiteSpace=wrap;html=1;" vertex="1" parent="1">
          <mxGeometry x="80" y="320" width="120" height="80" as="geometry" />
        </mxCell>
        <mxCell id="Kl7lDOIlUgvbYGV5eezf-15" style="edgeStyle=orthogonalEdgeStyle;rounded=0;orthogonalLoop=1;jettySize=auto;html=1;" edge="1" parent="1" source="Kl7lDOIlUgvbYGV5eezf-13">
          <mxGeometry relative="1" as="geometry">
            <mxPoint x="140" y="560" as="targetPoint" />
          </mxGeometry>
        </mxCell>
        <mxCell id="Kl7lDOIlUgvbYGV5eezf-13" value="Enter phone number" style="ellipse;whiteSpace=wrap;html=1;" vertex="1" parent="1">
          <mxGeometry x="80" y="440" width="120" height="80" as="geometry" />
        </mxCell>
        <mxCell id="Kl7lDOIlUgvbYGV5eezf-18" value="" style="edgeStyle=orthogonalEdgeStyle;rounded=0;orthogonalLoop=1;jettySize=auto;html=1;" edge="1" parent="1" source="Kl7lDOIlUgvbYGV5eezf-16" target="Kl7lDOIlUgvbYGV5eezf-17">
          <mxGeometry relative="1" as="geometry" />
        </mxCell>
        <mxCell id="Kl7lDOIlUgvbYGV5eezf-20" value="" style="edgeStyle=orthogonalEdgeStyle;rounded=0;orthogonalLoop=1;jettySize=auto;html=1;" edge="1" parent="1" source="Kl7lDOIlUgvbYGV5eezf-16" target="Kl7lDOIlUgvbYGV5eezf-19">
          <mxGeometry relative="1" as="geometry" />
        </mxCell>
        <mxCell id="Kl7lDOIlUgvbYGV5eezf-16" value="Is phone number already in contacts" style="rounded=0;whiteSpace=wrap;html=1;" vertex="1" parent="1">
          <mxGeometry x="80" y="560" width="120" height="80" as="geometry" />
        </mxCell>
        <mxCell id="Kl7lDOIlUgvbYGV5eezf-17" value="Yes" style="whiteSpace=wrap;html=1;rounded=0;" vertex="1" parent="1">
          <mxGeometry x="10" y="680" width="120" height="80" as="geometry" />
        </mxCell>
        <mxCell id="Kl7lDOIlUgvbYGV5eezf-22" value="" style="edgeStyle=orthogonalEdgeStyle;rounded=0;orthogonalLoop=1;jettySize=auto;html=1;" edge="1" parent="1" source="Kl7lDOIlUgvbYGV5eezf-19" target="Kl7lDOIlUgvbYGV5eezf-21">
          <mxGeometry relative="1" as="geometry" />
        </mxCell>
        <mxCell id="Kl7lDOIlUgvbYGV5eezf-19" value="No" style="whiteSpace=wrap;html=1;rounded=0;" vertex="1" parent="1">
          <mxGeometry x="150" y="680" width="120" height="80" as="geometry" />
        </mxCell>
        <mxCell id="Kl7lDOIlUgvbYGV5eezf-21" value="Click &quot;Add to contacts&quot;" style="ellipse;whiteSpace=wrap;html=1;rounded=0;" vertex="1" parent="1">
          <mxGeometry x="320" y="680" width="120" height="80" as="geometry" />
        </mxCell>
      </root>
    </mxGraphModel>
  </diagram>
</mxfile>
